<?xml version="1.0" encoding="iso-8859-1"?>
<!-- Generator: Adobe Illustrator 19.0.0, SVG Export Plug-In . SVG Version: 6.00 Build 0)  -->
<svg version="1.1" id="Capa_1" xmlns="http://www.w3.org/2000/svg" xmlns:xlink="http://www.w3.org/1999/xlink" x="0px" y="0px"
	 viewBox="0 0 512 512" style="enable-background:new 0 0 512 512;" xml:space="preserve">
<circle style="fill:#E3AA75;" cx="256" cy="255.99" r="104.21"/>
<g>
	<circle style="fill:#FFFFFF;" cx="215.92" cy="215.91" r="16.03"/>
	<circle style="fill:#FFFFFF;" cx="296.08" cy="296.07" r="16.03"/>
	<circle style="fill:#FFFFFF;" cx="296.08" cy="215.91" r="16.03"/>
	<circle style="fill:#FFFFFF;" cx="215.92" cy="296.07" r="16.03"/>
</g>
<path style="fill:#F7D291;" d="M175.603,118.911l-56.683,56.683c-6.261,6.261-16.412,6.261-22.673,0l-68.019-68.019l79.356-79.356
	l68.019,68.019C181.864,102.499,181.864,112.65,175.603,118.911z"/>
<g>
	<path style="fill:#FFE1A0;" d="M175.603,73.565L118.92,16.882c-12.521-12.522-32.824-12.522-45.345,0L16.892,73.565
		c-12.522,12.522-12.522,32.824,0,45.346l56.682,56.682c6.261,6.261,16.412,6.261,22.673,0c6.261-6.261,6.261-16.412,0-22.673
		l-34.01-34.01l56.682-56.682l34.01,34.009c6.261,6.261,16.412,6.261,22.674,0C181.864,89.977,181.864,79.826,175.603,73.565z"/>
	<path style="fill:#FFE1A0;" d="M159.286,135.228l-24.048,24.048l-28.223-28.223c-6.261-6.261-6.261-16.412,0-22.673l1.375-1.375
		c6.261-6.261,16.412-6.261,22.673,0L159.286,135.228z"/>
</g>
<path style="fill:#F7D291;" d="M336.397,393.07l56.683-56.683c6.261-6.261,16.412-6.261,22.673,0l68.019,68.019l-79.356,79.356
	l-68.019-68.019C330.136,409.482,330.136,399.331,336.397,393.07z"/>
<g>
	<path style="fill:#FFE1A0;" d="M336.397,438.417l56.683,56.682c12.521,12.522,32.824,12.522,45.345,0l56.682-56.682
		c12.522-12.522,12.522-32.824,0-45.346l-56.682-56.682c-6.261-6.261-16.412-6.261-22.673,0c-6.261,6.261-6.261,16.412,0,22.673
		l34.01,34.01l-56.682,56.682l-34.01-34.009c-6.261-6.261-16.412-6.261-22.674,0C330.136,422.005,330.136,432.156,336.397,438.417z"
		/>
	<path style="fill:#FFE1A0;" d="M352.714,376.753l24.048-24.048l28.223,28.223c6.261,6.261,6.261,16.412,0,22.673l-1.375,1.375
		c-6.261,6.261-16.412,6.261-22.673,0L352.714,376.753z"/>
</g>
<path style="fill:#F7D291;" d="M393.08,175.594l-56.683-56.683c-6.261-6.261-6.261-16.412,0-22.673l68.019-68.019l79.356,79.356
	l-68.019,68.019C409.492,181.854,399.341,181.854,393.08,175.594z"/>
<g>
	<path style="fill:#FFE1A0;" d="M438.426,175.594l56.682-56.683c12.522-12.521,12.522-32.824,0-45.345l-56.682-56.682
		c-12.522-12.522-32.824-12.522-45.346,0l-56.682,56.682c-6.261,6.261-6.261,16.412,0,22.673s16.412,6.261,22.673,0l34.01-34.01
		l56.682,56.682l-34.009,34.01c-6.261,6.261-6.261,16.412,0,22.674C422.014,181.854,432.165,181.854,438.426,175.594z"/>
	<path style="fill:#FFE1A0;" d="M376.763,159.276l-24.048-24.048l28.223-28.223c6.261-6.261,16.412-6.261,22.673,0l1.375,1.375
		c6.261,6.261,6.261,16.412,0,22.673L376.763,159.276z"/>
</g>
<path style="fill:#F7D291;" d="M118.92,336.388l56.683,56.683c6.261,6.261,6.261,16.412,0,22.673l-68.019,68.019l-79.356-79.356
	l68.019-68.019C102.508,330.127,112.659,330.127,118.92,336.388z"/>
<g>
	<path style="fill:#FFE1A0;" d="M73.574,336.388l-56.682,56.683c-12.522,12.521-12.522,32.824,0,45.345l56.682,56.682
		c12.522,12.522,32.824,12.522,45.346,0l56.682-56.682c6.261-6.261,6.261-16.412,0-22.673c-6.261-6.261-16.412-6.261-22.673,0
		l-34.01,34.01l-56.682-56.682l34.009-34.01c6.261-6.261,6.261-16.412,0-22.674C89.986,330.127,79.835,330.127,73.574,336.388z"/>
	<path style="fill:#FFE1A0;" d="M135.237,352.705l24.048,24.048l-28.223,28.223c-6.261,6.261-16.412,6.261-22.673,0l-1.375-1.375
		c-6.261-6.261-6.261-16.412,0-22.673L135.237,352.705z"/>
</g>
<path style="fill:#D29B6E;" d="M276.04,340.16c-57.553,0-104.21-46.656-104.21-104.21c0-23.662,7.978-45.41,21.265-62.903
	c-25.054,19.032-41.306,49.053-41.306,82.944c0,57.553,46.656,104.21,104.21,104.21c33.89,0,63.912-16.251,82.944-41.306
	C321.45,332.182,299.703,340.16,276.04,340.16z"/>
<path d="M68.271,180.897c4.444,4.445,10.354,6.893,16.64,6.893c4.03,0,7.903-1.011,11.336-2.905
	c3.434,1.894,7.307,2.905,11.336,2.905c6.286,0,12.195-2.448,16.64-6.893l56.683-56.682c4.445-4.445,6.893-10.354,6.893-16.64
	c0-4.03-1.011-7.903-2.904-11.337c1.893-3.434,2.904-7.307,2.904-11.336c0-6.286-2.448-12.195-6.893-16.64l-56.683-56.683
	c-15.426-15.426-40.526-15.426-55.952,0l0,0L11.588,68.261C4.116,75.734,0,85.67,0,96.238s4.116,20.504,11.588,27.976
	L68.271,180.897z M170.299,113.608l-56.683,56.683c-1.612,1.612-3.754,2.499-6.033,2.499c-0.243,0-0.483-0.015-0.722-0.035
	c1.034-2.675,1.582-5.543,1.582-8.497c0-6.286-2.448-12.195-6.893-16.64l-28.706-28.706l46.076-46.076l28.707,28.707
	c4.445,4.445,10.354,6.892,16.64,6.892c2.954,0,5.822-0.547,8.497-1.582c0.02,0.239,0.035,0.479,0.035,0.722
	C172.798,109.853,171.911,111.996,170.299,113.608z M50.171,96.238l46.076-46.076l12.066,12.066l-46.076,46.076L50.171,96.238z
	 M22.195,78.868l56.683-56.683c9.578-9.577,25.162-9.578,34.739,0L170.3,78.868c1.612,1.612,2.499,3.754,2.499,6.033
	s-0.887,4.422-2.499,6.033s-3.754,2.499-6.033,2.499s-4.421-0.888-6.033-2.499L101.55,34.252c-2.929-2.929-7.678-2.929-10.606,0
	L34.261,90.935c-2.929,2.929-2.929,7.677,0,10.606l56.683,56.683c1.612,1.612,2.499,3.754,2.499,6.033s-0.887,4.421-2.499,6.033
	c-1.611,1.612-3.754,2.499-6.033,2.499s-4.421-0.887-6.033-2.499l-56.683-56.683c-4.64-4.64-7.195-10.808-7.195-17.37
	S17.555,83.508,22.195,78.868z"/>
<path d="M443.729,331.085c-4.444-4.445-10.354-6.893-16.64-6.893c-4.03,0-7.903,1.011-11.336,2.905
	c-3.434-1.894-7.307-2.905-11.336-2.905c-6.286,0-12.195,2.448-16.64,6.893l-56.683,56.682c-4.445,4.445-6.893,10.354-6.893,16.64
	c0,4.03,1.011,7.903,2.904,11.337c-1.893,3.434-2.904,7.307-2.904,11.336c0,6.286,2.448,12.195,6.893,16.64l56.683,56.683
	c7.473,7.473,17.408,11.588,27.976,11.588s20.503-4.116,27.976-11.588l56.683-56.683c7.473-7.473,11.588-17.408,11.588-27.976
	c0-10.568-4.116-20.504-11.588-27.976L443.729,331.085z M341.701,398.374l56.683-56.683c1.612-1.612,3.754-2.499,6.033-2.499
	c0.243,0,0.483,0.015,0.722,0.035c-1.034,2.675-1.582,5.543-1.582,8.497c0,6.286,2.448,12.195,6.893,16.64l28.706,28.706
	l-46.076,46.076l-28.706-28.707c-4.445-4.445-10.354-6.892-16.64-6.892c-2.954,0-5.822,0.547-8.497,1.582
	c-0.02-0.239-0.035-0.479-0.035-0.722C339.202,402.128,340.089,399.986,341.701,398.374z M461.829,415.744l-46.076,46.076
	l-12.067-12.067l46.076-46.076L461.829,415.744z M489.805,433.113l-56.683,56.683c-4.64,4.64-10.808,7.195-17.37,7.195
	s-12.73-2.555-17.37-7.195l-56.683-56.683c-1.612-1.611-2.499-3.754-2.499-6.033s0.887-4.421,2.499-6.033
	c1.612-1.611,3.754-2.499,6.033-2.499s4.421,0.888,6.033,2.499l56.683,56.683c2.929,2.929,7.678,2.929,10.606,0l56.683-56.683
	c2.929-2.929,2.929-7.678,0-10.606l-56.683-56.683c-1.612-1.612-2.499-3.754-2.499-6.033s0.887-4.421,2.499-6.033
	c1.611-1.612,3.754-2.499,6.033-2.499s4.421,0.887,6.033,2.499l56.683,56.683c4.64,4.64,7.195,10.808,7.195,17.37
	C497,422.305,494.445,428.474,489.805,433.113z"/>
<path d="M331.094,124.214l56.683,56.683c4.444,4.445,10.354,6.893,16.64,6.893c4.03,0,7.903-1.011,11.336-2.905
	c3.434,1.894,7.307,2.905,11.336,2.905c6.286,0,12.195-2.448,16.64-6.893l56.683-56.683C507.884,116.741,512,106.806,512,96.238
	s-4.116-20.504-11.588-27.976l-56.683-56.683c-15.426-15.426-40.526-15.426-55.952,0l-56.683,56.682
	c-4.445,4.445-6.893,10.354-6.893,16.64c0,4.03,1.011,7.903,2.904,11.336c-1.893,3.434-2.904,7.307-2.904,11.337
	C324.202,113.86,326.649,119.77,331.094,124.214z M341.701,78.868l56.683-56.683c9.578-9.577,25.162-9.578,34.739,0l56.683,56.683
	c4.64,4.64,7.195,10.808,7.195,17.37s-2.555,12.73-7.195,17.37l-56.683,56.683c-1.612,1.612-3.754,2.499-6.033,2.499
	s-4.422-0.887-6.033-2.499c-1.612-1.612-2.499-3.754-2.499-6.033s0.887-4.422,2.499-6.033l56.683-56.683
	c2.929-2.929,2.929-7.677,0-10.606l-56.683-56.683c-2.929-2.929-7.678-2.929-10.606,0l-31.495,31.495
	c-2.929,2.929-2.929,7.677,0,10.606s7.678,2.929,10.606,0l3.518-3.518l46.076,46.076l-28.706,28.706
	c-4.445,4.445-6.893,10.354-6.893,16.64c0,2.954,0.547,5.822,1.582,8.497c-0.239,0.02-0.479,0.035-0.722,0.035
	c-2.279,0-4.421-0.887-6.033-2.499l-56.683-56.683c-1.612-1.612-2.499-3.754-2.499-6.033c0-0.243,0.015-0.483,0.035-0.722
	c2.675,1.034,5.543,1.582,8.497,1.582c6.286,0,12.195-2.448,16.64-6.893l3.109-3.109c2.929-2.929,2.928-7.678,0-10.606
	c-2.93-2.929-7.677-2.929-10.607,0l-3.108,3.109c-1.612,1.612-3.754,2.499-6.033,2.499s-4.421-0.887-6.033-2.499
	c-1.612-1.611-2.499-3.754-2.499-6.033C339.202,82.622,340.089,80.48,341.701,78.868z M449.762,108.304l-46.076-46.076
	l12.066-12.066l46.076,46.076L449.762,108.304z"/>
<path d="M180.906,387.767l-56.683-56.683c-4.444-4.445-10.354-6.893-16.64-6.893c-4.03,0-7.903,1.011-11.336,2.905
	c-3.434-1.894-7.307-2.905-11.336-2.905c-6.286,0-12.195,2.448-16.64,6.893l-56.683,56.683C4.116,395.24,0,405.176,0,415.744
	s4.116,20.503,11.588,27.976l56.683,56.683c7.473,7.473,17.408,11.588,27.976,11.588s20.503-4.116,27.976-11.588l56.683-56.682
	c4.445-4.445,6.893-10.354,6.893-16.64c0-4.03-1.011-7.903-2.904-11.336c1.893-3.434,2.904-7.307,2.904-11.337
	C187.798,398.121,185.351,392.212,180.906,387.767z M170.299,433.113l-56.683,56.683c-4.64,4.64-10.808,7.195-17.37,7.195
	s-12.73-2.555-17.37-7.195l-56.683-56.683c-4.64-4.64-7.195-10.809-7.195-17.37c0-6.562,2.555-12.73,7.195-17.37l56.683-56.683
	c1.612-1.612,3.754-2.499,6.033-2.499s4.422,0.887,6.033,2.499c1.612,1.612,2.499,3.754,2.499,6.033s-0.887,4.422-2.499,6.033
	L34.261,410.44c-2.929,2.929-2.929,7.678,0,10.606l56.683,56.683c2.929,2.929,7.678,2.929,10.606,0l30.778-30.778
	c2.929-2.929,2.929-7.678,0-10.606c-2.929-2.929-7.678-2.929-10.606,0l-2.802,2.802l-46.076-46.076l28.706-28.706
	c4.445-4.445,6.893-10.354,6.893-16.64c0-2.954-0.547-5.822-1.582-8.497c0.239-0.02,0.479-0.035,0.722-0.035
	c2.279,0,4.421,0.887,6.033,2.499l56.683,56.683c1.612,1.612,2.499,3.754,2.499,6.033c0,0.243-0.015,0.483-0.035,0.722
	c-2.675-1.034-5.543-1.582-8.497-1.582c-6.286,0-12.195,2.448-16.64,6.893l-3.485,3.485c-2.929,2.929-2.929,7.678,0,10.606
	c2.929,2.929,7.678,2.929,10.606,0l3.485-3.485c1.612-1.611,3.754-2.499,6.033-2.499s4.421,0.888,6.033,2.5
	c1.612,1.611,2.499,3.754,2.499,6.033S171.911,431.501,170.299,433.113z M62.238,403.677l46.076,46.076L96.247,461.82
	l-46.076-46.076L62.238,403.677z"/>
<path d="M367.709,255.991c0-61.597-50.113-111.71-111.709-111.71s-111.709,50.113-111.709,111.71S194.403,367.7,256,367.7
	S367.709,317.588,367.709,255.991z M256,352.7c-53.326,0-96.709-43.384-96.709-96.71s43.384-96.71,96.709-96.71
	s96.709,43.384,96.709,96.71S309.326,352.7,256,352.7z"/>
<path d="M215.919,192.378c-12.976,0-23.532,10.557-23.532,23.532s10.557,23.532,23.532,23.532s23.532-10.557,23.532-23.532
	S228.895,192.378,215.919,192.378z M215.919,224.442c-4.705,0-8.532-3.828-8.532-8.532s3.828-8.532,8.532-8.532
	s8.532,3.828,8.532,8.532S220.624,224.442,215.919,224.442z"/>
<path d="M296.081,272.539c-12.976,0-23.532,10.557-23.532,23.532s10.557,23.532,23.532,23.532s23.532-10.557,23.532-23.532
	S309.056,272.539,296.081,272.539z M296.081,304.604c-4.705,0-8.532-3.828-8.532-8.532s3.828-8.532,8.532-8.532
	s8.532,3.828,8.532,8.532S300.785,304.604,296.081,304.604z"/>
<path d="M296.081,192.378c-12.976,0-23.532,10.557-23.532,23.532s10.557,23.532,23.532,23.532s23.532-10.557,23.532-23.532
	S309.056,192.378,296.081,192.378z M296.081,224.442c-4.705,0-8.532-3.828-8.532-8.532s3.828-8.532,8.532-8.532
	s8.532,3.828,8.532,8.532S300.785,224.442,296.081,224.442z"/>
<path d="M215.919,272.539c-12.976,0-23.532,10.557-23.532,23.532s10.557,23.532,23.532,23.532s23.532-10.557,23.532-23.532
	S228.895,272.539,215.919,272.539z M215.919,304.604c-4.705,0-8.532-3.828-8.532-8.532s3.828-8.532,8.532-8.532
	s8.532,3.828,8.532,8.532S220.624,304.604,215.919,304.604z"/>
<g>
</g>
<g>
</g>
<g>
</g>
<g>
</g>
<g>
</g>
<g>
</g>
<g>
</g>
<g>
</g>
<g>
</g>
<g>
</g>
<g>
</g>
<g>
</g>
<g>
</g>
<g>
</g>
<g>
</g>
</svg>
