<svg height="511pt" viewBox="-32 0 511 511.99788" width="511pt" xmlns="http://www.w3.org/2000/svg"><g fill-rule="evenodd"><path d="m223.539062 133-106.523437 61.5 106.523437 61.5 106.523438-61.5zm0 0" fill="#55d08f"/><path d="m223.539062 256v123l106.523438-61.5v-123zm0 0" fill="#83d8ef"/><path d="m330.0625 317.5-106.523438 61.5v123l106.523438-61.5zm0 0" fill="#ffbc44"/><path d="m330.0625 317.5v123l106.519531-61.5v-123l-37.078125 21.402344zm0 0" fill="#ff3d53"/><path d="m330.0625 317.5 69.441406-40.097656 37.078125-21.402344v-123l-106.519531 61.5zm0 0" fill="#55d08f"/></g><path d="m365.558594 91.996094-35.496094-20.496094-106.523438 61.5 35.5 20.496094 71.023438 41.003906 35.496094-20.496094 71.023437-41.003906zm0 0" fill="#ffbc44"/><path d="m152.515625 91.996094 71.023437 41.003906zm0 0" fill="#ff3d53"/><path d="m259.039062 30.496094-71.023437 41.003906 71.023437 41.003906 71.023438-41.003906zm0 0" fill="#83d8ef"/><path d="m152.515625 91.996094 71.023437 41.003906 35.5-20.496094-71.023437-41.003906zm0 0" fill="#83d8ef"/><path d="m152.515625 91.996094-71.019531 41.003906v40.992188l35.519531 20.507812 35.5-20.496094 71.023437-41.003906zm0 0" fill="#ff3d53"/><path d="m81.496094 296.992188v82.007812l35.519531 20.507812v-82.007812zm0 0" fill="#83d8ef"/><path d="m81.496094 173.992188v82.007812l35.519531 20.507812v-82.007812zm0 0" fill="#ffbc44"/><path d="m81.496094 296.992188 35.519531 20.507812v-40.992188l-35.519531-20.507812zm0 0" fill="#ffbc44"/><path d="m117.015625 194.5v123l106.523437 61.5v-123zm0 0" fill="#ff3d53"/><path d="m188.015625 358.492188-71-40.992188v82.007812l71 40.992188 35.523437 20.507812v-82.007812zm0 0" fill="#55d08f"/><path d="m399.503906 197.402344c-5.523437 0-10 4.476562-10 10v.234375c0 5.523437 4.476563 10 10 10 5.519532 0 10-4.476563 10-10v-.234375c0-5.523438-4.476562-10-10-10zm0 0"/><path d="m446.574219 132.914062c-.003907-.410156-.027344-.816406-.082031-1.226562-.003907-.023438-.007813-.046875-.011719-.070312-.050781-.367188-.128907-.734376-.222657-1.097657-.023437-.097656-.050781-.195312-.078124-.292969-.085938-.292968-.1875-.582031-.300782-.871093-.035156-.097657-.070312-.195313-.109375-.289063-.15625-.359375-.328125-.71875-.527343-1.066406-.003907 0-.003907-.003906-.003907-.003906-.199219-.347656-.425781-.675782-.660156-.988282-.0625-.082031-.128906-.160156-.191406-.242187-.195313-.242187-.394531-.472656-.609375-.695313-.066406-.070312-.136719-.144531-.210938-.214843-.269531-.261719-.546875-.511719-.839844-.742188-.019531-.011719-.035156-.027343-.054687-.042969-.328125-.25-.667969-.476562-1.019531-.683593-.023438-.015625-.046875-.03125-.070313-.046875l-213.042969-123c-3.09375-1.785156-6.90625-1.785156-10 0l-213.042968 123c-.019532.011718-.042969.03125-.0625.042968-.355469.210938-.699219.4375-1.027344.691407-.015625.007812-.03125.023437-.042969.03125-.296875.234375-.582031.484375-.851562.753906-.074219.066406-.140625.140625-.210938.210937-.210937.222657-.414062.453126-.609375.699219-.066406.078125-.128906.15625-.191406.238281-.234375.316407-.457031.640626-.660156.992188v.003906c-.203125.347656-.375.703125-.527344 1.066406-.042969.09375-.074219.191407-.113281.285157-.113281.289062-.214844.578125-.296875.875-.03125.097656-.058594.191406-.082032.289062-.09375.363281-.171874.730469-.222656 1.097657-.003906.023437-.007812.046874-.011718.070312-.054688.410156-.078126.820312-.082032 1.226562 0 .027344-.003906.058594-.003906.085938v246c0 3.574219 1.90625 6.875 5 8.660156l213.042969 123c.023437.015625.050781.023438.074219.035156.355468.203126.722656.386719 1.101562.542969.023438.011719.050781.019531.078125.027344.339844.136719.6875.253906 1.046875.355469.101562.027344.203125.050781.300781.074218.296875.074219.59375.132813.898438.179688.105469.015625.207031.035156.308593.046875.390626.046875.785157.074219 1.191407.074219.398437 0 .796875-.027344 1.1875-.074219.101562-.011719.207031-.03125.308593-.046875.304688-.046875.605469-.105469.898438-.179688.101562-.023437.199219-.046874.300781-.074218.359375-.101563.707031-.21875 1.050781-.355469.023438-.007813.050782-.019531.074219-.027344.382813-.15625.746094-.339843 1.101563-.542969.023437-.011718.050781-.019531.078125-.035156l213.039062-123c3.09375-1.785156 5-5.085937 5-8.660156v-246c0-.03125-.007812-.058594-.007812-.085938zm-47.070313 93.453126c-5.519531 0-10 4.480468-10 10v35.261718l-49.441406 28.546875v-99.902343l86.519531-49.953126v99.90625l-17.078125 9.855469v-23.714843c0-5.519532-4.476562-10-10-10zm-379.007812 23.859374v-99.90625l86.519531 49.953126v99.90625zm96.523437-167.179687 86.519531 49.953125-86.519531 49.953125-86.523437-49.953125zm299.5625 49.953125-86.519531 49.953125-86.523438-49.953125 86.523438-49.953125zm-106.519531 61.5-86.523438 49.953125-86.519531-49.953125 86.519531-49.953125zm-183.046875 17.320312 86.523437 49.953126v99.90625l-86.523437-49.953126zm86.523437 172.953126v99.90625l-86.523437-49.957032v-99.90625zm20 0 86.523438-49.953126v99.90625l-86.523438 49.953126zm0-23.09375v-99.90625l86.523438-49.957032v99.90625zm-10-340.132813 86.523438 49.953125-86.523438 49.953125-86.519531-49.953125zm-203.042968 251.773437 18.375 10.605469v35.261719c0 5.523438 4.476562 10 10 10 5.519531 0 10-4.476562 10-10v-23.714844l48.144531 27.800782v99.90625l-86.519531-49.953126zm319.566406 149.859376v-99.90625l86.519531-49.953126v99.90625zm0 0"/><path d="m48.867188 337.917969c-5.519532 0-10 4.480469-10 10v.238281c0 5.523438 4.480468 10 10 10 5.523437 0 10-4.476562 10-10v-.238281c0-5.519531-4.476563-10-10-10zm0 0"/></svg>