<svg height="512pt" viewBox="0 0 512 512.001" width="512pt" xmlns="http://www.w3.org/2000/svg"><path d="m142.703125 172.9375h-104.972656c-16.695313 0-30.234375-13.535156-30.234375-30.234375v-104.972656c.003906-16.695313 13.539062-30.230469 30.234375-30.230469h104.972656c16.699219 0 30.234375 13.535156 30.234375 30.230469v104.972656c0 16.699219-13.535156 30.234375-30.234375 30.234375zm0 0" fill="#ff6e88"/><path d="m149.988281 8.386719c.574219 2.332031.886719 4.769531.886719 7.28125v104.972656c0 16.699219-13.535156 30.234375-30.234375 30.234375h-104.972656c-2.511719 0-4.949219-.3125-7.28125-.890625 3.261719 13.179687 15.160156 22.953125 29.34375 22.953125h104.976562c16.695313 0 30.230469-13.535156 30.230469-30.234375v-104.972656c0-14.183594-9.773438-26.082031-22.949219-29.34375zm0 0" fill="#e36278"/><path d="m308.144531 172.9375h-104.972656c-16.699219 0-30.234375-13.535156-30.234375-30.234375v-104.972656c0-16.695313 13.535156-30.230469 30.234375-30.230469h104.972656c16.695313 0 30.234375 13.535156 30.234375 30.230469v104.972656c0 16.699219-13.539062 30.234375-30.234375 30.234375zm0 0" fill="#4d9ae8"/><path d="m311.894531 7.738281c.152344 1.230469.238281 2.480469.238281 3.75v104.972657c0 16.699218-13.535156 30.234374-30.230468 30.234374h-104.976563c-1.269531 0-2.519531-.089843-3.75-.238281 1.847657 14.925781 14.566407 26.480469 29.996094 26.480469h104.972656c16.695313 0 30.234375-13.535156 30.234375-30.234375v-104.972656c0-15.425781-11.558594-28.144531-26.484375-29.992188zm0 0" fill="#4181c2"/><path d="m473.585938 172.9375h-104.976563c-16.695313 0-30.230469-13.535156-30.230469-30.234375v-104.972656c0-16.695313 13.535156-30.230469 30.230469-30.230469h104.976563c16.695312 0 30.230468 13.535156 30.230468 30.230469v104.972656c0 16.699219-13.535156 30.234375-30.230468 30.234375zm0 0" fill="#4cb4a4"/><path d="m481.65625 8.597656c.710938 2.570313 1.097656 5.273438 1.097656 8.070313v104.972656c0 16.699219-13.535156 30.234375-30.234375 30.234375h-104.972656c-2.796875 0-5.5-.386719-8.070313-1.097656 3.53125 12.777344 15.234376 22.160156 29.132813 22.160156h104.972656c16.699219 0 30.234375-13.535156 30.234375-30.234375v-104.972656c0-13.898438-9.382812-25.601563-22.160156-29.132813zm0 0" fill="#41998b"/><path d="m142.703125 338.71875h-104.972656c-16.695313 0-30.234375-13.535156-30.234375-30.234375v-104.972656c0-16.695313 13.535156-30.230469 30.234375-30.230469h104.972656c16.699219 0 30.234375 13.535156 30.234375 30.230469v104.972656c0 16.699219-13.535156 30.234375-30.234375 30.234375zm0 0" fill="#ffb258"/><path d="m149.988281 174.167969c.574219 2.332031.886719 4.773437.886719 7.28125v104.976562c0 16.695313-13.535156 30.230469-30.234375 30.230469h-104.972656c-2.511719 0-4.949219-.3125-7.28125-.890625 3.261719 13.179687 15.160156 22.953125 29.34375 22.953125h104.976562c16.695313 0 30.230469-13.535156 30.230469-30.234375v-104.972656c0-14.183594-9.773438-26.082031-22.949219-29.34375zm0 0" fill="#e8a250"/><path d="m308.144531 338.71875h-104.972656c-16.699219 0-30.234375-13.535156-30.234375-30.234375v-104.972656c0-16.695313 13.535156-30.230469 30.234375-30.230469h104.972656c16.695313 0 30.234375 13.535156 30.234375 30.230469v104.972656c0 16.699219-13.539062 30.234375-30.234375 30.234375zm0 0" fill="#475a72"/><path d="m311.894531 173.519531c.152344 1.230469.238281 2.480469.238281 3.75v104.972657c0 16.699218-13.535156 30.234374-30.230468 30.234374h-104.976563c-1.269531 0-2.519531-.085937-3.75-.238281 1.847657 14.925781 14.566407 26.480469 29.996094 26.480469h104.972656c16.695313 0 30.234375-13.535156 30.234375-30.230469v-104.972656c0-15.429687-11.558594-28.148437-26.484375-29.996094zm0 0" fill="#364457"/><path d="m473.585938 338.71875h-104.976563c-16.695313 0-30.230469-13.535156-30.230469-30.234375v-104.972656c0-16.695313 13.535156-30.230469 30.230469-30.230469h104.976563c16.695312 0 30.230468 13.535156 30.230468 30.230469v104.972656c0 16.699219-13.535156 30.234375-30.230468 30.234375zm0 0" fill="#ff6e88"/><path d="m481.65625 174.378906c.710938 2.570313 1.097656 5.273438 1.097656 8.070313v104.972656c0 16.699219-13.535156 30.234375-30.234375 30.234375h-104.972656c-2.796875 0-5.5-.386719-8.070313-1.097656 3.53125 12.777344 15.234376 22.160156 29.132813 22.160156h104.972656c16.699219 0 30.234375-13.535156 30.234375-30.234375v-104.972656c0-13.898438-9.382812-25.601563-22.160156-29.132813zm0 0" fill="#e36278"/><path d="m142.703125 504.5h-104.972656c-16.695313 0-30.234375-13.535156-30.234375-30.234375v-104.972656c0-16.695313 13.535156-30.230469 30.234375-30.230469h104.972656c16.699219 0 30.234375 13.535156 30.234375 30.230469v104.972656c0 16.699219-13.535156 30.234375-30.234375 30.234375zm0 0" fill="#ffe675"/><path d="m149.988281 339.949219c.574219 2.332031.886719 4.773437.886719 7.28125v104.972656c0 16.699219-13.535156 30.234375-30.234375 30.234375h-104.972656c-2.511719 0-4.949219-.3125-7.28125-.890625 3.261719 13.179687 15.160156 22.953125 29.34375 22.953125h104.976562c16.695313 0 30.230469-13.535156 30.230469-30.234375v-104.972656c0-14.183594-9.773438-26.082031-22.949219-29.34375zm0 0" fill="#dec866"/><path d="m308.144531 504.5h-104.972656c-16.699219 0-30.234375-13.535156-30.234375-30.234375v-104.972656c0-16.695313 13.535156-30.230469 30.234375-30.230469h104.972656c16.695313 0 30.234375 13.535156 30.234375 30.230469v104.972656c0 16.699219-13.539062 30.234375-30.234375 30.234375zm0 0" fill="#ff6e88"/><path d="m311.894531 339.300781c.152344 1.230469.238281 2.480469.238281 3.75v104.972657c0 16.699218-13.535156 30.234374-30.230468 30.234374h-104.976563c-1.269531 0-2.519531-.085937-3.75-.238281 1.847657 14.925781 14.566407 26.480469 29.996094 26.480469h104.972656c16.695313 0 30.234375-13.535156 30.234375-30.230469v-104.972656c0-15.429687-11.558594-28.148437-26.484375-29.996094zm0 0" fill="#e36278"/><path d="m473.585938 504.5h-104.976563c-16.695313 0-30.230469-13.535156-30.230469-30.234375v-104.972656c0-16.695313 13.535156-30.230469 30.230469-30.230469h104.976563c16.695312 0 30.230468 13.535156 30.230468 30.230469v104.972656c0 16.699219-13.535156 30.234375-30.230468 30.234375zm0 0" fill="#ffe675"/><path d="m481.65625 340.160156c.710938 2.570313 1.097656 5.273438 1.097656 8.070313v104.976562c0 16.695313-13.535156 30.230469-30.234375 30.230469h-104.972656c-2.796875 0-5.5-.386719-8.070313-1.097656 3.53125 12.777344 15.234376 22.160156 29.132813 22.160156h104.972656c16.699219 0 30.234375-13.535156 30.234375-30.234375v-104.972656c0-13.898438-9.382812-25.601563-22.160156-29.132813zm0 0" fill="#dec866"/><path d="m511.316406 142.703125v-104.972656c0-20.804688-16.929687-37.730469-37.734375-37.730469h-104.972656c-12.355469 0-23.347656 5.972656-30.230469 15.179688-6.886718-9.207032-17.878906-15.179688-30.234375-15.179688h-104.972656c-12.359375 0-23.347656 5.972656-30.234375 15.179688-6.886719-9.207032-17.875-15.179688-30.234375-15.179688h-31.730469c-4.140625 0-7.5 3.355469-7.5 7.5 0 4.140625 3.359375 7.496094 7.5 7.496094h31.730469c12.539063 0 22.734375 10.199218 22.734375 22.734375v104.972656c0 12.539063-10.195312 22.734375-22.734375 22.734375h-104.972656c-12.535157 0-22.734375-10.195312-22.734375-22.734375v-104.972656c0-12.535157 10.199218-22.734375 22.734375-22.734375h45.25c4.140625 0 7.496093-3.355469 7.496093-7.496094 0-4.144531-3.355468-7.5-7.496093-7.5h-45.25c-20.804688 0-37.730469 16.925781-37.730469 37.730469v104.972656c0 12.460937 6.074219 23.53125 15.414062 30.40625-9.34375 6.875-15.414062 17.945313-15.414062 30.40625v104.972656c0 12.460938 6.074219 23.527344 15.414062 30.402344-9.34375 6.875-15.414062 17.945313-15.414062 30.40625v48.730469c0 4.144531 3.359375 7.5 7.5 7.5s7.496094-3.355469 7.496094-7.5v-48.730469c0-12.535156 10.199218-22.734375 22.734375-22.734375h104.976562c12.535157 0 22.734375 10.199219 22.734375 22.734375v104.972656c0 12.535157-10.199218 22.734375-22.734375 22.734375h-104.976562c-12.535157 0-22.734375-10.199218-22.734375-22.734375v-28.246093c0-4.144532-3.355469-7.5-7.496094-7.5s-7.5 3.355468-7.5 7.5v28.246093c0 20.804688 16.925781 37.730469 37.730469 37.730469h104.976562c12.355469 0 23.34375-5.96875 30.230469-15.179688 6.886719 9.207032 17.875 15.179688 30.234375 15.179688h104.972656c12.359375 0 23.347657-5.972656 30.234375-15.179688 6.886719 9.207032 17.875 15.179688 30.230469 15.179688h104.976563c20.804687 0 37.730468-16.925781 37.730468-37.730469v-104.972656c0-12.460937-6.074218-23.53125-15.414062-30.40625 9.34375-6.875 15.414062-17.941406 15.414062-30.402344v-26.605469c0-4.140624-3.359375-7.496093-7.5-7.496093s-7.496094 3.355469-7.496094 7.496093v26.605469c0 12.535157-10.199218 22.734375-22.734374 22.734375h-104.976563c-12.535156 0-22.734375-10.199218-22.734375-22.734375v-104.972656c0-12.539063 10.199219-22.734375 22.734375-22.734375h104.976563c12.535156 0 22.734374 10.195312 22.734374 22.734375v50.375c0 4.140625 3.355469 7.496094 7.496094 7.496094s7.5-3.355469 7.5-7.496094v-50.375c0-12.460937-6.074218-23.53125-15.414062-30.40625 9.339844-6.875 15.414062-17.945313 15.414062-30.40625zm-308.144531-127.707031h104.972656c12.535157 0 22.734375 10.199218 22.734375 22.734375v104.972656c0 12.539063-10.199218 22.734375-22.734375 22.734375h-104.972656c-12.539063 0-22.738281-10.195312-22.738281-22.734375v-104.972656c.003906-12.535157 10.199218-22.734375 22.738281-22.734375zm127.707031 293.488281c0 12.539063-10.199218 22.734375-22.734375 22.734375h-104.972656c-12.539063 0-22.738281-10.195312-22.738281-22.734375v-104.972656c0-12.535157 10.199218-22.734375 22.738281-22.734375h104.972656c12.535157 0 22.734375 10.199218 22.734375 22.734375zm-157.941406-143.230469c2.238281 2.992188 4.90625 5.640625 7.914062 7.855469-3.007812 2.214844-5.675781 4.863281-7.914062 7.855469-2.234375-2.992188-4.90625-5.640625-7.914062-7.855469 3.007812-2.214844 5.679687-4.863281 7.914062-7.855469zm-157.941406 38.257813c0-12.535157 10.199218-22.734375 22.734375-22.734375h104.976562c12.535157 0 22.734375 10.199218 22.734375 22.734375v104.972656c0 12.539063-10.199218 22.734375-22.734375 22.734375h-104.976562c-12.535157 0-22.734375-10.195312-22.734375-22.734375zm150.027344 135.378906c3.007812-2.214844 5.679687-4.863281 7.914062-7.855469 2.238281 2.992188 4.90625 5.640625 7.914062 7.855469-3.007812 2.214844-5.675781 4.863281-7.914062 7.855469-2.234375-2.992188-4.90625-5.640625-7.914062-7.855469zm143.121093 158.113281h-104.972656c-12.539063 0-22.738281-10.199218-22.738281-22.734375v-104.972656c0-12.539063 10.199218-22.734375 22.738281-22.734375h104.972656c12.535157 0 22.734375 10.195312 22.734375 22.734375v104.972656c0 12.535157-10.199218 22.734375-22.734375 22.734375zm188.175781-22.734375c0 12.535157-10.203124 22.734375-22.738281 22.734375h-104.972656c-12.535156 0-22.734375-10.199218-22.734375-22.734375v-104.972656c0-12.539063 10.199219-22.734375 22.734375-22.734375h104.972656c12.535157 0 22.738281 10.195312 22.738281 22.734375zm-150.027343-135.378906c-3.011719 2.214844-5.679688 4.863281-7.914063 7.855469-2.238281-2.992188-4.90625-5.640625-7.914062-7.855469 3.007812-2.214844 5.675781-4.863281 7.914062-7.855469 2.234375 2.992188 4.902344 5.640625 7.914063 7.855469zm-7.914063-157.925781c-2.238281-2.992188-4.90625-5.640625-7.914062-7.855469 3.007812-2.214844 5.675781-4.863281 7.914062-7.855469 2.234375 2.992188 4.902344 5.640625 7.914063 7.855469-3.011719 2.214844-5.679688 4.863281-7.914063 7.855469zm157.941406-38.261719c0 12.539063-10.203124 22.734375-22.738281 22.734375h-104.972656c-12.535156 0-22.734375-10.195312-22.734375-22.734375v-104.972656c0-12.535157 10.199219-22.734375 22.734375-22.734375h104.972656c12.535157 0 22.738281 10.199218 22.738281 22.734375zm0 0"/></svg>