<svg height="512" viewBox="0 0 74 74" width="512" xmlns="http://www.w3.org/2000/svg"><g id="color_line" data-name="color line"><path d="m47.213 6.934-10.213-3.934-10.213 3.934 10.213 4.073z" fill="#fe7058"/><path d="m57.73 10.99-10.29 4.18h-.01l-.46-.19-9.97-3.97 10.21-4.08c4.55 1.75 5.68 2.19 10.52 4.06z" fill="#05afd6"/><path d="m47.43 15.17-10.43 4.24-10.43-4.24 10.43-4.16 9.97 3.97z" fill="#fcd462"/><path d="m37 19.91a.5.5 0 0 1 -.188-.037l-10.43-4.24a.5.5 0 0 1 0-.928l10.43-4.16a.5.5 0 0 1 .37 0l10.438 4.163a.5.5 0 0 1 0 .925l-10.43 4.24a.5.5 0 0 1 -.19.037zm-9.091-4.736 9.091 3.697 9.1-3.7-9.1-3.623z" fill="#323c6b"/><path d="m37 11.007-10.213-4.073-10.518 4.051 10.297 4.183z" fill="#27ccbc"/><path d="m26.565 15.668a.506.506 0 0 1 -.188-.037l-10.3-4.183a.5.5 0 0 1 .009-.93l10.521-4.051a.5.5 0 0 1 .365 0l10.213 4.073a.5.5 0 0 1 0 .929l-10.434 4.163a.5.5 0 0 1 -.186.036zm-8.937-4.668 8.939 3.631 9.083-3.622-8.866-3.538z" fill="#323c6b"/><path d="m37 19.41-10.73 4.36-10.82-4.17 11.12-4.43z" fill="#27ccbc"/><path d="m26.27 24.27a.5.5 0 0 1 -.18-.034l-10.819-4.17a.5.5 0 0 1 0-.931l11.12-4.43a.5.5 0 0 1 .373 0l10.43 4.24a.5.5 0 0 1 0 .927l-10.73 4.36a.506.506 0 0 1 -.194.038zm-9.45-4.678 9.444 3.64 9.407-3.822-9.1-3.7z" fill="#323c6b"/><path d="m26.57 15.17-11.12 4.43-10.77-4.15 11.59-4.46z" fill="#05afd6"/><path d="m15.45 20.1a.507.507 0 0 1 -.18-.033l-10.77-4.15a.5.5 0 0 1 0-.934l11.59-4.46a.5.5 0 0 1 .368 0l10.3 4.18a.5.5 0 0 1 0 .928l-11.12 4.43a.491.491 0 0 1 -.188.039zm-9.379-4.649 9.376 3.612 9.783-3.9-8.966-3.638z" fill="#323c6b"/><path d="m58.55 19.61c-3.44 1.33-7.27 2.81-10.78 4.16l-10.77-4.36 10.43-4.24h.01z" fill="#fe7058"/><path d="m47.77 24.27a.5.5 0 0 1 -.187-.037l-10.77-4.36a.5.5 0 0 1 0-.927l10.43-4.24a.539.539 0 0 1 .385 0l11.109 4.44a.5.5 0 0 1 0 .931c-3.44 1.33-7.271 2.811-10.781 4.161a.507.507 0 0 1 -.186.032zm-9.44-4.861 9.444 3.823c3.06-1.177 6.352-2.448 9.409-3.63l-9.747-3.9z" fill="#323c6b"/><path d="m69.32 15.45s-4.81 1.86-10.77 4.16l-11.11-4.44 10.29-4.18c5.33 2.05 11.59 4.46 11.59 4.46z" fill="#27ccbc"/><path d="m47.21 6.93-3.48 1.39c-4.1-1.57-9.54-3.67-10.28-3.95l3.55-1.37s5.8 2.23 10.21 3.93z" fill="#ea6453"/><path d="m57.73 10.99-3.46 1.41h-.01c-4.8-1.86-5.93-2.3-10.47-4.05l-.06-.03 3.48-1.39c4.55 1.75 5.68 2.19 10.52 4.06z" fill="#27a2db"/><path d="m69.32 15.45s-1.37.53-3.55 1.37c-.91-.35-6.57-2.53-11.46-4.41a.06.06 0 0 0 -.04-.01l3.46-1.41c5.33 2.05 11.59 4.46 11.59 4.46z" fill="#21b3a9"/><path d="m47.43 15.67a.5.5 0 0 1 -.19-.038l-.46-.19a.5.5 0 1 1 .381-.924l.46.19a.5.5 0 0 1 -.19.962z" fill="#323c6b"/><path d="m59.01 20.29a.494.494 0 0 1 -.183-.035l-.46-.18a.5.5 0 1 1 .365-.931l.46.18a.5.5 0 0 1 -.183.965z" fill="#323c6b"/><path d="m59.01 20.29a.494.494 0 0 1 -.183-.035l-.46-.18a.5.5 0 1 1 .365-.931l.46.18a.5.5 0 0 1 -.183.965z" fill="#323c6b"/><path d="m47.43 15.67a.5.5 0 0 1 -.19-.038l-.46-.19a.5.5 0 1 1 .381-.924l.46.19a.5.5 0 0 1 -.19.962z" fill="#323c6b"/><path d="m47.77 23.77c-4.76 1.84-10.77 4.13-10.77 4.13l-10.73-4.13 10.73-4.36z" fill="#fcd462"/><path d="m37 28.4a.507.507 0 0 1 -.18-.033l-10.73-4.13a.5.5 0 0 1 -.009-.93l10.73-4.36a.5.5 0 0 1 .376 0l10.77 4.36a.5.5 0 0 1 -.007.93c-4.761 1.84-10.772 4.131-10.772 4.131a.492.492 0 0 1 -.178.032zm-9.371-4.643 9.371 3.607c.938-.357 5.394-2.057 9.409-3.605l-9.409-3.809z" fill="#323c6b"/><path d="m26.23 23.75v14.46l-10.78-4.15v-14.46z" fill="#05afd6"/><path d="m26.23 38.71a.511.511 0 0 1 -.18-.033l-10.78-4.15a.5.5 0 0 1 -.32-.467v-14.46a.5.5 0 0 1 .68-.467l10.78 4.15a.5.5 0 0 1 .32.467v14.46a.5.5 0 0 1 -.5.5zm-10.28-4.993 9.78 3.765v-13.389l-9.78-3.765z" fill="#323c6b"/><path d="m37 27.9v14.46l-10.77-4.15v-14.46z" fill="#27ccbc"/><path d="m37 42.86a.507.507 0 0 1 -.18-.033l-10.77-4.15a.5.5 0 0 1 -.32-.467v-14.46a.5.5 0 0 1 .68-.467l10.77 4.15a.5.5 0 0 1 .32.467v14.46a.5.5 0 0 1 -.5.5zm-10.27-4.993 9.77 3.765v-13.389l-9.77-3.765z" fill="#323c6b"/><path d="m15.451 34.058-10.775-4.151v14.457l10.775 4.15z" fill="#05afd6"/><path d="m15.451 49.014a.511.511 0 0 1 -.18-.033l-10.771-4.15a.5.5 0 0 1 -.32-.467v-14.457a.5.5 0 0 1 .68-.467l10.775 4.15a.5.5 0 0 1 .32.467v14.457a.5.5 0 0 1 -.5.5zm-10.275-4.993 9.775 3.765v-13.386l-9.775-3.764z" fill="#323c6b"/><path d="m15.451 19.601-10.775-4.15v14.456l10.775 4.151z" fill="#fe7058"/><path d="m15.451 34.558a.511.511 0 0 1 -.18-.033l-10.771-4.151a.5.5 0 0 1 -.32-.467v-14.456a.5.5 0 0 1 .68-.467l10.775 4.15a.5.5 0 0 1 .32.467v14.457a.5.5 0 0 1 -.5.5zm-10.275-4.994 9.775 3.765v-13.385l-9.775-3.765z" fill="#323c6b"/><path d="m26.225 38.208v14.456l10.775 4.15v-14.456z" fill="#fe7058"/><path d="m37 57.314a.511.511 0 0 1 -.18-.033l-10.774-4.15a.5.5 0 0 1 -.32-.467v-14.456a.5.5 0 0 1 .68-.467l10.774 4.15a.5.5 0 0 1 .32.467v14.456a.5.5 0 0 1 -.5.5zm-10.274-4.993 9.774 3.765v-13.386l-9.774-3.765z" fill="#323c6b"/><path d="m15.451 34.058v14.456l10.774 4.15v-14.456z" fill="#27ccbc"/><path d="m26.226 53.164a.511.511 0 0 1 -.18-.033l-10.774-4.15a.5.5 0 0 1 -.32-.467v-14.456a.5.5 0 0 1 .68-.467l10.774 4.15a.5.5 0 0 1 .32.467v14.456a.5.5 0 0 1 -.5.5zm-10.275-4.993 9.774 3.765v-13.385l-9.774-3.765z" fill="#323c6b"/><path d="m4.676 44.364v14.185l10.775 4.151v-14.186z" fill="#fcd462"/><path d="m15.451 63.2a.511.511 0 0 1 -.18-.033l-10.771-4.151a.5.5 0 0 1 -.32-.467v-14.185a.5.5 0 0 1 .68-.467l10.775 4.15a.5.5 0 0 1 .32.467v14.186a.5.5 0 0 1 -.5.5zm-10.275-4.994 9.775 3.765v-13.114l-9.775-3.765z" fill="#323c6b"/><path d="m26.23 52.66v14.19l-10.78-4.15v-14.19z" fill="#fe7058"/><path d="m26.23 67.35a.511.511 0 0 1 -.18-.033l-10.78-4.15a.5.5 0 0 1 -.32-.467v-14.19a.5.5 0 0 1 .68-.467l10.78 4.15a.5.5 0 0 1 .32.467v14.19a.5.5 0 0 1 -.5.5zm-10.28-4.993 9.78 3.765v-13.122l-9.78-3.765z" fill="#323c6b"/><path d="m26.23 52.66 10.77 4.15v14.19l-10.77-4.15" fill="#05afd6"/><path d="m37 71.5a.507.507 0 0 1 -.18-.033l-10.77-4.15a.5.5 0 0 1 .359-.934l10.091 3.888v-13.118l-10.449-4.026a.5.5 0 0 1 .359-.934l10.77 4.15a.5.5 0 0 1 .32.467v14.19a.5.5 0 0 1 -.5.5z" fill="#323c6b"/><path d="m47.775 52.664 10.774-4.15v-14.456l-10.774 4.15z" fill="#fcd462"/><path d="m47.774 53.164a.5.5 0 0 1 -.5-.5v-14.456a.5.5 0 0 1 .32-.467l10.774-4.15a.5.5 0 0 1 .68.467v14.456a.5.5 0 0 1 -.32.467l-10.774 4.15a.511.511 0 0 1 -.18.033zm.5-14.613v13.385l9.774-3.765v-13.385z" fill="#323c6b"/><path d="m58.549 48.514 10.775-4.15v-14.457l-10.775 4.151z" fill="#fe7058"/><path d="m58.549 19.601v14.457l10.775-4.151v-14.456z" fill="#fcd462"/><path d="m37 42.358v14.456l10.775-4.15v-14.456z" fill="#27ccbc"/><path d="m37 57.314a.5.5 0 0 1 -.5-.5v-14.456a.5.5 0 0 1 .32-.467l10.774-4.15a.5.5 0 0 1 .68.467v14.456a.5.5 0 0 1 -.32.467l-10.774 4.15a.511.511 0 0 1 -.18.033zm.5-14.614v13.386l9.774-3.765v-13.385z" fill="#323c6b"/><path d="m58.55 48.51v14.19l-10.78 4.15v-14.19z" fill="#27ccbc"/><path d="m47.77 52.66v14.19l-10.77 4.15v-14.19z" fill="#fe7058"/><path d="m47.77 23.75v14.46l-10.77 4.15v-14.46z" fill="#fe7058"/><path d="m37 42.86a.5.5 0 0 1 -.5-.5v-14.46a.5.5 0 0 1 .32-.467l10.77-4.15a.5.5 0 0 1 .68.467v14.46a.5.5 0 0 1 -.32.467l-10.77 4.15a.507.507 0 0 1 -.18.033zm.5-14.617v13.388l9.77-3.765v-13.387z" fill="#323c6b"/><path d="m58.55 19.6v14.46l-10.78 4.15v-14.46z" fill="#05afd6"/><path d="m47.77 38.71a.5.5 0 0 1 -.5-.5v-14.46a.5.5 0 0 1 .32-.467l10.78-4.15a.5.5 0 0 1 .68.467v14.46a.5.5 0 0 1 -.32.467l-10.78 4.15a.511.511 0 0 1 -.18.033zm.5-14.617v13.389l9.78-3.765v-13.389z" fill="#323c6b"/><path d="m58.549 62.7 10.775-4.151v-14.185l-10.775 4.15z" fill="#05afd6"/><path d="m58.55 59.12v3.58l-10.78 4.15v-3.58z" fill="#21b3a9"/><path d="m47.77 63.27v3.58l-10.77 4.15v-3.58z" fill="#ea6453"/><path d="m69.32 54.97v3.58l-10.77 4.15v-3.58z" fill="#27a2db"/><path d="m69.32 29.91v14.45l-3.5 1.35v-14.45z" fill="#ea6453"/><path d="m69.32 15.45v14.46l-3.5 1.35v-14.46z" fill="#f7be56"/><path d="m69.32 44.36v14.19l-3.5 1.35v-14.19z" fill="#27a2db"/><g fill="#323c6b"><path d="m37 11.507a.5.5 0 0 1 -.186-.036l-10.214-4.071a.5.5 0 0 1 .006-.931l10.214-3.936a.506.506 0 0 1 .359 0l10.214 3.934a.5.5 0 0 1 .007.933l-10.214 4.071a.5.5 0 0 1 -.186.036zm-8.843-4.565 8.843 3.527 8.843-3.527-8.843-3.406z"/><path d="m47.44 15.67a.545.545 0 0 1 -.2-.038l-.46-.19-9.964-3.968a.5.5 0 0 1 0-.929l10.21-4.08a.5.5 0 0 1 .365 0c3.339 1.284 4.837 1.862 7.309 2.82l3.207 1.239a.5.5 0 0 1 .008.93l-10.29 4.18a.512.512 0 0 1 -.185.036zm-9.09-4.661 9.087 3.623 8.936-3.632-2.029-.785c-2.431-.939-3.917-1.514-7.13-2.75z"/><path d="m58.55 20.11a.5.5 0 0 1 -.186-.036l-11.109-4.44a.5.5 0 0 1 0-.928l10.29-4.18a.5.5 0 0 1 .368 0l11.59 4.46a.5.5 0 0 1 0 .933l-10.771 4.16a.5.5 0 0 1 -.182.031zm-9.771-4.944 9.774 3.907 9.378-3.622-10.2-3.923z"/><path d="m58.549 49.014a.5.5 0 0 1 -.5-.5v-14.456a.5.5 0 0 1 .32-.467l10.775-4.15a.5.5 0 0 1 .68.467v14.456a.5.5 0 0 1 -.32.467l-10.775 4.15a.511.511 0 0 1 -.18.033zm.5-14.613v13.385l9.775-3.765v-13.385z"/><path d="m58.549 34.558a.5.5 0 0 1 -.5-.5v-14.458a.5.5 0 0 1 .32-.467l10.775-4.15a.5.5 0 0 1 .68.467v14.457a.5.5 0 0 1 -.32.467l-10.775 4.15a.511.511 0 0 1 -.18.034zm.5-14.613v13.384l9.775-3.765v-13.385z"/><path d="m58.549 63.2a.5.5 0 0 1 -.5-.5v-14.186a.5.5 0 0 1 .32-.467l10.776-4.147a.5.5 0 0 1 .68.467v14.182a.5.5 0 0 1 -.32.467l-10.775 4.15a.511.511 0 0 1 -.181.034zm.5-14.342v13.113l9.775-3.765v-13.114z"/><path d="m47.77 67.35a.5.5 0 0 1 -.5-.5v-14.19a.5.5 0 0 1 .32-.467l10.78-4.15a.5.5 0 0 1 .68.467v14.19a.5.5 0 0 1 -.32.467l-10.78 4.15a.511.511 0 0 1 -.18.033zm.5-14.35v13.122l9.78-3.765v-13.119z"/><path d="m37 71.5a.5.5 0 0 1 -.5-.5v-14.19a.5.5 0 0 1 .32-.467l10.77-4.15a.5.5 0 0 1 .68.467v14.19a.5.5 0 0 1 -.32.467l-10.77 4.15a.507.507 0 0 1 -.18.033zm.5-14.347v13.118l9.77-3.765v-13.117z"/><path d="m18.714 7.328a.5.5 0 0 1 -.18-.967l.608-.234a.5.5 0 0 1 .359.934l-.608.234a.5.5 0 0 1 -.179.033z"/><path d="m21.938 6.086a.5.5 0 0 1 -.18-.967l8.176-3.149a.5.5 0 1 1 .359.934l-8.176 3.149a.5.5 0 0 1 -.179.033z"/><path d="m72.324 53.875a.5.5 0 0 1 -.5-.5v-.715a.5.5 0 0 1 1 0v.715a.5.5 0 0 1 -.5.5z"/><path d="m68.2 62.7a.5.5 0 0 1 -.18-.967l3.809-1.466v-4.517a.5.5 0 0 1 1 0v4.859a.5.5 0 0 1 -.32.467l-4.129 1.59a.508.508 0 0 1 -.18.034z"/></g><path d="m31.612 65.81a.642.642 0 0 1 -.229-.042l-.609-.23a.65.65 0 1 1 .459-1.216l.609.23a.65.65 0 0 1 -.229 1.258z" fill="#fff"/><path d="m28.321 64.565a.642.642 0 0 1 -.229-.042l-9.078-3.432a.65.65 0 1 1 .459-1.216l9.078 3.432a.65.65 0 0 1 -.229 1.258z" fill="#fff"/><path d="m26.23 67.35a.5.5 0 0 1 -.5-.5v-14.19a.5.5 0 0 1 1 0v14.19a.5.5 0 0 1 -.5.5z" fill="#323c6b"/></g></svg>